<svg height="16" viewBox="0 0 16 16" width="16" xmlns="http://www.w3.org/2000/svg">
<path d="M 14.062 4.5 C 15.283 6.782 15.184 9.558 14.062 11.5 C 12.941 13.442 10.587 15 8 15 C 5.606 15 3.193 13.539 1.938 11.5 C 0.717 9.218 0.816 6.442 1.938 4.5 C 3.047 2.578 5.365 1.032 7.919 1.001 C 7.946 0.999 7.972 0.999 7.988 0.999 C 8.042 0.998 8.13 0.997 8.2 0.996 C 8.234 0.996 8.266 0.995 8.287 0.995 C 8.298 0.995 8.312 0.995 8.321 0.995 C 8.326 0.995 8.339 0.995 8.349 0.996 C 8.36 0.996 8.4 0.998 8.429 1.002 C 8.442 1.003 8.476 1.01 8.523 1.023 C 10.739 1.216 12.898 2.609 14.062 4.5 Z M 3.67 5.5 C 2.77 7.058 2.581 8.782 3.67 10.5 C 4.559 12.173 6.106 13 8 13 C 10.032 13 11.431 12.058 12.33 10.5 C 13.23 8.942 13.419 7.218 12.33 5.5 C 11.441 3.827 9.894 3 8 3 C 5.968 3 4.569 3.942 3.67 5.5 Z" style="fill: rgb(255, 202, 95);"></path>
<path d="M 13.436 7.853 L 8.048 13.446 L 2.598 8.212 L 7.986 2.618 L 13.436 7.853 Z M 5.253 8.16 L 7.997 10.795 L 10.782 7.905 L 8.038 5.269 L 5.253 8.16 Z" style="fill: rgb(255, 202, 95);"></path>
</svg>

